#!OML:ASF H:\MichaelJackson\Top Level 1\Subject 1\Session 1\male.ASF
:FULLY-SPECIFIED
:DEGREES
804
root 9.87169 15.534 30.2738 -166.078 -181.55 -177.186
lowerback 12.6895 0.781951 0.111749
upperback 1.63407 1.06958 0.333574
thorax -5.40149 0.525734 0.104021
lowerneck -8.68211 -3.06263 1.82154
upperneck -6.02994 -4.2796 -1.32671
head -0.501463 -2.18657 -0.789894
rclavicle -6.55989e-015 3.97569e-015
rhumerus -38.4075 4.36414 -87.3765
rradius 45.0521
rwrist 11.5462
rhand -34.6553 -19.029
rfingers 7.12502
rthumb -7.81208 -408.865
lclavicle -6.55989e-015 3.97569e-015
lhumerus -41.5151 -17.3155 99.4005
lradius 54.1625
lwrist 1.68844
lhand -26.8047 23.1834
lfingers 7.12502
lthumb -0.231507 53.163
rfemur -56.9074 -8.51528 20.0167
rtibia 70.9931
rfoot -13.0845 4.81288
rtoes 19.4705
lfemur -50.897 3.03217 -18.9806
ltibia 59.5821
lfoot -26.0446 -13.5759
ltoes 2.06118
805
root 9.88709 15.4532 30.3155 -166.245 -182.228 -177.182
lowerback 12.8143 0.696062 0.0432177
upperback 1.65625 0.949252 0.366582
thorax -5.44864 0.468568 0.196504
lowerneck -8.56824 -3.15646 1.77302
upperneck -6.19359 -4.40082 -1.34329
head -0.571855 -2.24604 -0.785195
rclavicle -3.97569e-016 -1.11319e-014
rhumerus -37.3117 2.51994 -86.8623
rradius 44.53
rwrist 11.6935
rhand -34.6682 -20.1292
rfingers 7.12502
rthumb -7.8245 -409.964
lclavicle -3.97569e-016 -1.11319e-014
lhumerus -41.1313 -17.741 99.5944
lradius 54.1435
lwrist 3.83037
lhand -26.8637 23.3132
lfingers 7.12502
lthumb -0.288454 53.2927
rfemur -56.8021 -7.7912 19.7046
rtibia 71.1678
rfoot -14.3321 3.3818
rtoes 20.731
lfemur -51.2256 1.64292 -18.6044
ltibia 60.8329
lfoot -26.7501 -12.5363
ltoes 1.63416
806
root 9.90147 15.372 30.3563 -166.451 -182.9 -177.171
lowerback 12.9414 0.619073 -0.0170833
upperback 1.67092 0.841126 0.388699
thorax -5.50432 0.417177 0.271158
lowerneck -8.45486 -3.26745 1.73582
upperneck -6.33066 -4.54565 -1.35452
head -0.634482 -2.31741 -0.781308
rclavicle 3.37934e-015 6.36111e-015
rhumerus -36.3924 0.74265 -86.4603
rradius 44.2005
rwrist 11.2687
rhand -34.7427 -21.6122
rfingers 7.12502
rthumb -7.89641 -411.445
lclavicle 3.37934e-015 6.36111e-015
lhumerus -40.6993 -18.2565 99.7983
lradius 54.0395
lwrist 5.7226
lhand -26.8521 23.3472
lfingers 7.12502
lthumb -0.277236 53.3268
rfemur -56.6127 -6.99451 19.3056
rtibia 71.6764
rfoot -15.7653 1.83218
rtoes 20.6519
lfemur -51.507 0.207138 -18.2268
ltibia 62.0558
lfoot -27.4343 -11.4247
ltoes 1.1075
807
root 9.91485 15.2909 30.3964 -166.689 -183.552 -177.156
lowerback 13.0763 0.556591 -0.0783141
upperback 1.67902 0.751593 0.404882
thorax -5.57098 0.374926 0.337143
lowerneck -8.34353 -3.39335 1.69865
upperneck -6.45521 -4.70989 -1.34842
head -0.692825 -2.3984 -0.772374
rclavicle -1.07344e-014 1.59028e-014
rhumerus -35.6327 -0.842029 -86.1877
rradius 44.0804
rwrist 10.1589
rhand -34.992 -23.4354
rfingers 7.12502
rthumb -8.13702 -413.259
lclavicle -1.07344e-014 1.59028e-014
lhumerus -40.2053 -18.8175 100.003
lradius 53.8158
lwrist 7.15423
lhand -26.6924 23.2929
lfingers 7.12502
lthumb -0.123038 53.2726
rfemur -56.3437 -6.12835 18.8416
rtibia 72.3366
rfoot -17.1689 0.209285
rtoes 19.4034
lfemur -51.7114 -1.2288 -17.8616
ltibia 63.1315
lfoot -28.0111 -10.2896
ltoes 0.493082
808
root 9.92714 15.2101 30.4361 -166.953 -184.167 -177.143
lowerback 13.2215 0.512709 -0.151702
upperback 1.68054 0.684644 0.419306
thorax -5.65036 0.344056 0.404395
lowerneck -8.23915 -3.52791 1.65525
upperneck -6.58165 -4.88454 -1.31629
head -0.749962 -2.48445 -0.754419
rclavicle 7.35503e-015 -8.74653e-015
rhumerus -35.0039 -2.14908 -86.0391
rradius 44.1624
rwrist 8.42429
rhand -35.4044 -25.5289
rfingers 7.12502
rthumb -8.53501 -415.336
lclavicle 7.35503e-015 -8.74653e-015
lhumerus -39.6358 -19.3758 100.195
lradius 53.4472
lwrist 7.98721
lhand -26.3234 23.204
lfingers 7.12502
lthumb 0.23336 53.1836
rfemur -56.0437 -5.19925 18.3406
rtibia 73.1405
rfoot -18.476 -1.41101
rtoes 17.3041
lfemur -51.8834 -2.61884 -17.5178
ltibia 64.1803
lfoot -28.5599 -9.1497
ltoes -0.182809
809
root 9.93612 15.1834 30.4691 -167.228 -184.731 -177.14
lowerback 13.3716 0.489879 -0.239286
upperback 1.67347 0.64314 0.43248
thorax -5.74166 0.326037 0.474023
lowerneck -8.1463 -3.66661 1.60576
upperneck -6.71898 -5.06349 -1.25478
head -0.807641 -2.57258 -0.726344
rclavicle -4.96962e-015 -4.77083e-015
rhumerus -34.4697 -3.1215 -86.002
rradius 44.4032
rwrist 6.21347
rhand -35.9656 -27.7673
rfingers 7.12502
rthumb -9.07664 -417.552
lclavicle -4.96962e-015 -4.77083e-015
lhumerus -38.9868 -19.89 100.358
lradius 52.9185
lwrist 8.17978
lhand -25.7372 23.0692
lfingers 7.12502
lthumb 0.799518 53.0475
rfemur -55.5006 -4.2113 17.8412
rtibia 73.7389
rfoot -19.6025 -2.92167
rtoes 15.2284
lfemur -51.8109 -3.93513 -17.2046
ltibia 64.9728
lfoot -29.072 -8.03764
ltoes -0.863716
810
root 9.94612 15.1099 30.5086 -167.499 -185.235 -177.152
lowerback 13.5175 0.485308 -0.340337
upperback 1.65651 0.623403 0.44459
thorax -5.84142 0.319078 0.546392
lowerneck -8.0741 -3.80107 1.55667
upperneck -6.86886 -5.23608 -1.16535
head -0.864847 -2.65767 -0.689744
rclavicle -2.5842e-015 -1.11319e-014
rhumerus -33.9996 -3.74218 -86.0579
rradius 44.7455
rwrist 3.79131
rhand -36.5864 -30.0116
rfingers 7.12502
rthumb -9.67563 -419.769
lclavicle -2.5842e-015 -1.11319e-014
lhumerus -38.2615 -20.3091 100.468
lradius 52.2321
lwrist 7.7538
lhand -24.9383 22.8626
lfingers 7.12502
lthumb 1.5712 52.8366
rfemur -55.2218 -3.2292 17.3744
rtibia 74.5404
rfoot -20.521 -4.25558
rtoes 13.8212
lfemur -51.923 -5.13086 -16.9041
ltibia 65.9155
lfoot -29.546 -7.01263
ltoes -1.49991
811
root 9.95478 15.0427 30.5479 -167.751 -185.685 -177.182
lowerback 13.6488 0.492417 -0.453072
upperback 1.62771 0.616784 0.453023
thorax -5.94582 0.318908 0.619261
lowerneck -8.03352 -3.92492 1.5082
upperneck -7.0235 -5.39341 -1.04117
head -0.916989 -2.73538 -0.642831
rclavicle -3.57812e-015 -3.97569e-016
rhumerus -33.571 -4.02159 -86.1831
rradius 45.1285
rwrist 1.45004
rhand -37.1414 -32.0957
rfingers 7.12502
rthumb -10.211 -421.828
lclavicle -3.57812e-015 -3.97569e-016
lhumerus -37.4655 -20.5857 100.497
lradius 51.3996
lwrist 6.80581
lhand -23.9323 22.5154
lfingers 7.12502
lthumb 2.54274 52.48
rfemur -54.9889 -2.30937 16.992
rtibia 75.2662
rfoot -21.2362 -5.4423
rtoes 13.0467
lfemur -52.0155 -6.19704 -16.6235
ltibia 66.777
lfoot -29.9729 -6.10532
ltoes -2.05025
